<?xml version="1.0" standalone="no"?>
<!DOCTYPE svg PUBLIC "-//W3C//DTD SVG 20010904//EN"
 "http://www.w3.org/TR/2001/REC-SVG-20010904/DTD/svg10.dtd">
<svg version="1.0" xmlns="http://www.w3.org/2000/svg"
 width="1067.000000pt" height="1067.000000pt" viewBox="0 0 1067.000000 1067.000000"
 preserveAspectRatio="xMidYMid meet">

<g transform="translate(0.000000,1067.000000) scale(0.100000,-0.100000)"
fill="#000000" stroke="none">
<path d="M5090 10664 c-19 -2 -114 -11 -210 -19 -314 -28 -626 -82 -925 -161
-97 -26 -465 -145 -494 -160 -14 -8 -31 -14 -37 -14 -10 0 -38 -11 -161 -66
-17 -8 -34 -14 -38 -14 -29 0 -533 -263 -684 -357 -20 -12 -49 -30 -66 -39
-16 -9 -32 -20 -35 -23 -3 -4 -30 -22 -60 -41 -30 -19 -59 -38 -65 -42 -5 -4
-77 -58 -160 -120 -194 -145 -189 -141 -340 -275 -241 -215 -388 -366 -588
-606 -18 -21 -37 -43 -43 -50 -14 -16 -226 -299 -241 -323 -7 -11 -27 -41 -45
-69 -18 -27 -35 -52 -39 -55 -3 -3 -14 -18 -23 -35 -9 -16 -28 -48 -41 -70
-14 -22 -30 -51 -36 -65 -6 -13 -14 -27 -18 -30 -17 -12 -201 -367 -279 -540
-43 -97 -60 -136 -67 -160 -4 -14 -14 -34 -21 -45 -8 -11 -14 -26 -14 -35 -1
-8 -9 -33 -20 -55 -11 -22 -19 -46 -20 -53 0 -8 -6 -28 -14 -45 -8 -18 -29
-79 -46 -137 -17 -58 -35 -112 -39 -120 -5 -9 -12 -31 -15 -50 -4 -19 -16 -64
-26 -100 -16 -59 -27 -107 -74 -325 -91 -423 -126 -1044 -83 -1480 38 -391
102 -726 199 -1050 35 -118 108 -338 124 -372 8 -17 14 -36 14 -43 0 -7 7 -24
15 -38 8 -15 28 -61 45 -102 71 -170 299 -627 321 -640 4 -3 13 -17 19 -30 19
-41 42 -80 115 -189 39 -57 75 -111 80 -120 27 -43 221 -297 232 -304 7 -4 13
-15 13 -22 0 -8 4 -15 9 -15 5 0 22 -18 38 -39 97 -132 541 -576 672 -672 22
-17 41 -35 41 -40 0 -5 7 -9 15 -9 7 0 18 -6 22 -12 4 -7 26 -27 48 -44 63
-48 239 -178 256 -189 9 -5 63 -41 120 -80 57 -38 115 -75 129 -82 14 -7 37
-21 52 -30 85 -57 414 -228 578 -301 99 -44 119 -53 230 -95 1244 -481 2606
-481 3850 0 111 42 131 51 230 95 164 73 493 244 578 301 15 9 38 23 52 30 14
7 72 44 129 82 57 39 111 75 120 80 17 11 193 141 256 189 22 17 44 37 48 44
4 6 15 12 22 12 8 0 15 4 15 9 0 5 18 22 39 38 132 97 577 542 674 674 16 21
33 39 38 39 5 0 9 7 9 15 0 7 6 18 13 22 11 7 205 261 232 304 6 9 41 63 80
120 73 109 96 148 115 189 6 13 15 27 19 30 22 13 250 470 321 640 17 41 37
87 45 102 8 14 15 31 15 38 0 7 6 26 14 43 26 57 122 354 164 512 39 141 92
397 117 555 57 370 80 874 51 1157 -9 87 -19 185 -22 218 -13 156 -49 365
-105 625 -35 159 -131 491 -165 567 -8 17 -14 37 -14 45 -1 7 -9 31 -20 53
-11 22 -19 47 -20 55 0 9 -6 24 -14 35 -7 11 -17 31 -21 45 -7 24 -24 63 -67
160 -78 173 -262 528 -279 540 -4 3 -12 17 -18 30 -6 14 -22 43 -36 65 -13 22
-32 54 -41 70 -9 17 -20 32 -23 35 -4 3 -21 28 -39 55 -18 28 -38 58 -45 69
-15 24 -227 307 -241 323 -6 7 -25 29 -42 50 -215 258 -436 480 -719 719 -52
44 -37 33 -210 162 -82 62 -154 116 -160 120 -5 4 -35 23 -65 42 -30 19 -57
37 -60 41 -3 3 -18 14 -35 23 -16 9 -46 27 -66 39 -160 100 -482 269 -639 336
-100 43 -106 45 -174 75 -32 14 -63 26 -70 26 -6 0 -23 6 -37 14 -29 15 -397
134 -494 160 -437 116 -871 175 -1330 181 -143 2 -276 1 -295 -1z m4270 -4299
c141 -73 84 -295 -75 -295 -157 0 -216 209 -83 290 40 24 116 27 158 5z
m-7909 -28 c67 -45 86 -125 48 -205 -37 -75 -123 -101 -205 -61 -109 52 -116
221 -11 273 48 24 127 21 168 -7z m2507 -356 l2 -353 43 43 c98 99 274 142
422 103 172 -44 291 -156 341 -321 25 -83 25 -249 0 -328 -45 -139 -141 -250
-263 -301 -63 -27 -78 -29 -193 -29 -120 0 -128 1 -192 32 -36 17 -84 49 -107
72 -23 23 -43 41 -46 41 -2 0 -5 -28 -7 -62 l-3 -63 -82 -3 -83 -3 0 218 c0
120 -3 396 -6 614 -3 218 -3 464 1 548 l8 152 81 -3 81 -3 3 -354z m5756 275
c52 -22 76 -60 76 -121 0 -48 -3 -56 -34 -83 -44 -38 -84 -47 -127 -29 -72 31
-99 83 -80 154 8 28 21 45 53 66 48 31 65 33 112 13z m-8661 -31 c27 -19 57
-71 57 -99 0 -68 -60 -126 -130 -126 -54 0 -90 22 -114 72 -36 71 -1 142 84
172 22 7 81 -3 103 -19z m6030 4 c30 -14 67 -77 67 -116 0 -36 -44 -101 -76
-114 -14 -5 -44 -9 -66 -9 -35 0 -47 6 -80 40 -30 33 -38 48 -38 79 0 45 20
88 52 113 26 20 104 24 141 7z m571 -321 c4 -73 8 -133 9 -135 2 -1 57 -5 124
-9 l121 -7 4 -66 c3 -36 4 -68 2 -70 -1 -1 -59 -5 -128 -8 l-126 -6 0 -266 c0
-146 5 -284 10 -306 14 -61 48 -85 123 -85 34 0 77 4 95 9 l32 10 0 -80 c0
-77 0 -79 -27 -86 -16 -5 -80 -8 -143 -8 -100 1 -120 4 -156 23 -56 30 -71 49
-94 115 -18 52 -20 83 -20 361 0 200 -4 307 -10 311 -6 4 -53 9 -105 12 l-95
6 0 68 0 67 78 7 c42 3 88 7 102 8 l25 2 3 133 3 132 83 0 83 0 7 -132z m2342
91 c29 -18 34 -26 34 -60 0 -75 -81 -115 -140 -69 -20 15 -25 28 -25 65 0 37
5 50 25 65 32 25 65 25 106 -1z m-9224 -31 c25 -32 23 -80 -4 -105 -50 -45
-106 -40 -138 14 -27 45 -26 55 10 93 27 29 35 32 72 27 27 -4 48 -14 60 -29z
m8548 -3 c10 -12 10 -18 0 -30 -25 -30 -61 -7 -46 30 3 8 12 15 19 15 8 0 20
-7 27 -15z m-7939 -21 c11 -14 10 -18 -5 -30 -30 -22 -75 14 -49 39 12 12 40
7 54 -9z m8131 -18 c4 -6 8 -20 8 -31 0 -39 -37 -63 -71 -45 -25 14 -26 75 -1
89 19 11 53 4 64 -13z m-8300 -23 c22 -20 23 -31 1 -55 -28 -31 -74 -22 -87
18 -14 45 48 71 86 37z m8555 -95 c32 -30 32 -90 -2 -123 -53 -53 -145 -15
-145 60 0 73 93 114 147 63z m-8760 -26 c33 -39 30 -84 -8 -116 -54 -46 -122
-26 -135 39 -9 50 11 93 50 104 41 12 66 5 93 -27z m4586 -7 c213 -56 337
-234 337 -487 l0 -58 -382 -2 -383 -3 -3 -32 c-7 -71 74 -175 173 -224 43 -20
64 -24 150 -24 113 0 128 6 220 80 l55 46 43 -30 c65 -47 77 -57 77 -69 0 -20
-98 -98 -162 -130 -90 -44 -153 -55 -282 -50 -148 7 -223 36 -311 122 -73 71
-115 150 -139 255 -20 92 -20 151 0 237 46 199 195 341 394 377 56 10 159 6
213 -8z m1101 9 c13 -5 16 -23 16 -94 l0 -88 -97 -4 c-138 -6 -191 -36 -244
-138 -22 -43 -23 -56 -29 -345 l-5 -300 -85 0 -85 0 0 472 0 473 88 0 87 0 0
-65 c0 -36 2 -65 5 -65 3 0 21 18 42 40 48 54 83 78 146 100 51 19 131 26 161
14z m-4291 -23 c59 -20 152 -76 176 -105 13 -15 10 -22 -28 -60 -69 -70 -83
-74 -128 -38 -43 34 -146 72 -195 72 -123 0 -234 -80 -281 -205 -36 -95 -38
-201 -3 -277 52 -116 144 -185 257 -195 101 -9 147 2 207 47 29 22 57 40 63
40 14 0 119 -100 119 -114 0 -26 -95 -84 -187 -115 -118 -40 -304 -25 -415 31
-132 68 -212 183 -243 351 -18 94 -18 101 -1 189 21 111 58 188 122 252 109
109 198 145 365 145 89 1 129 -3 172 -18z m405 3 c28 -4 52 -11 52 -16 0 -8
80 -219 111 -293 8 -20 38 -100 86 -230 14 -38 34 -89 44 -112 11 -24 19 -49
19 -56 0 -14 19 -37 32 -37 4 0 8 8 8 17 0 10 9 41 20 70 12 29 30 79 42 110
11 32 27 72 33 88 7 17 27 71 44 120 36 104 69 196 100 277 l22 57 54 6 c71 9
125 -1 125 -22 0 -9 -8 -35 -18 -57 -11 -23 -46 -111 -79 -196 -33 -85 -92
-238 -132 -340 -39 -102 -76 -193 -81 -202 -6 -10 -10 -23 -10 -30 0 -6 -8
-30 -19 -52 -10 -23 -41 -100 -69 -171 -28 -72 -58 -144 -66 -160 -9 -17 -16
-33 -16 -37 0 -14 -62 -98 -86 -117 -69 -54 -226 -78 -314 -48 l-35 12 4 65
c2 36 5 68 8 72 2 4 37 5 76 2 61 -6 79 -3 112 14 62 31 76 53 136 200 32 82
36 114 15 154 -8 14 -19 43 -26 65 -7 21 -21 54 -31 73 -9 19 -38 89 -64 155
-26 65 -51 126 -55 135 -10 18 -49 114 -81 195 -13 33 -29 69 -36 80 -7 11
-13 26 -13 35 0 8 -7 29 -16 45 -9 17 -24 51 -34 77 l-18 47 27 4 c45 7 74 7
129 1z m4271 0 l31 -6 0 -475 0 -474 -87 3 -88 3 -3 472 -2 472 22 4 c37 7 93
7 127 1z m1135 0 c25 -4 46 -11 46 -16 0 -7 55 -155 79 -213 5 -11 21 -54 36
-95 15 -41 52 -136 81 -210 29 -74 56 -147 59 -162 4 -15 13 -32 21 -39 15
-12 16 -10 55 101 10 30 30 87 44 125 15 39 32 88 40 110 7 22 25 72 40 110
14 39 33 93 41 120 9 28 19 55 22 60 4 6 14 30 22 55 l15 45 70 5 c101 8 118
4 110 -28 -4 -15 -15 -45 -26 -69 -10 -23 -19 -45 -19 -49 0 -9 -116 -306
-141 -360 -11 -23 -19 -48 -19 -56 0 -8 -4 -18 -8 -23 -5 -6 -14 -23 -20 -40
-25 -72 -97 -253 -114 -291 -10 -22 -18 -44 -18 -49 0 -4 -20 -58 -45 -120
-101 -252 -127 -289 -244 -334 -58 -23 -141 -27 -221 -10 l-50 11 7 71 c3 40
11 75 16 79 6 3 21 2 34 -3 59 -22 146 -5 195 38 17 15 70 118 83 163 4 14 12
31 18 39 19 22 12 112 -12 156 -11 21 -21 46 -21 55 0 9 -4 20 -9 26 -5 5 -25
50 -45 101 -19 50 -43 108 -52 130 -10 21 -25 56 -34 78 -10 22 -25 56 -34 77
-9 20 -16 39 -16 43 0 8 -45 117 -60 146 -5 9 -23 54 -41 100 -18 46 -36 88
-41 94 -13 14 -10 23 10 28 27 7 95 8 146 1z m1924 -26 c31 -31 3 -78 -46 -78
-24 0 -42 38 -31 68 9 25 56 31 77 10z m-9563 -14 c29 -19 32 -40 8 -66 -21
-24 -54 -23 -76 2 -22 26 -21 29 5 57 26 27 31 28 63 7z m9365 -134 c19 -5 47
-21 63 -35 23 -22 27 -33 27 -83 0 -63 -2 -68 -44 -100 -21 -16 -42 -22 -78
-22 -44 0 -54 4 -85 35 -34 34 -35 38 -31 95 5 64 14 77 73 105 37 17 32 17
75 5z m-9144 -27 c34 -17 74 -76 74 -110 0 -24 -31 -77 -59 -100 -33 -28 -116
-31 -146 -5 -56 48 -69 108 -36 163 40 65 99 84 167 52z m9389 -33 c0 -28 -27
-39 -51 -19 -13 10 -12 14 3 31 23 25 48 19 48 -12z m-9670 -20 c0 -30 -34
-40 -54 -16 -10 12 -10 18 1 30 21 24 53 16 53 -14z m9558 -298 c60 -40 72
-62 72 -132 0 -57 -3 -69 -29 -97 -56 -62 -119 -77 -185 -44 -60 31 -91 80
-91 143 1 58 21 93 76 129 38 25 119 25 157 1z m-9365 -8 c105 -41 133 -168
55 -247 -38 -40 -80 -53 -145 -44 -47 6 -82 36 -109 91 -24 49 -24 54 1 112
22 50 44 71 95 91 41 16 58 15 103 -3z m9016 -155 c-13 -14 -21 -16 -35 -8
-24 12 -24 35 -2 48 13 7 23 5 36 -6 16 -15 16 -18 1 -34z m-8759 1 c0 -29
-32 -41 -41 -16 -9 24 4 48 23 44 12 -2 18 -12 18 -28z m8715 -130 c24 -24 25
-38 3 -62 -18 -21 -53 -24 -71 -6 -18 18 -15 59 6 74 24 19 39 17 62 -6z
m-8635 -34 c8 -24 6 -31 -14 -47 -29 -24 -36 -24 -62 2 -34 34 -9 82 41 77 17
-2 28 -12 35 -32z m8925 -76 c40 -21 62 -59 63 -107 1 -58 -14 -88 -56 -113
-39 -24 -83 -25 -125 -4 -47 23 -62 51 -62 113 0 48 3 57 35 87 45 42 93 50
145 24z m-9163 -26 c13 -8 32 -33 44 -56 19 -37 20 -45 8 -80 -35 -107 -173
-126 -229 -31 -67 114 65 238 177 167z m8748 -61 c80 -59 -4 -185 -93 -139
-34 17 -42 33 -42 82 0 47 42 88 83 80 15 -3 39 -14 52 -23z m-8341 -25 c28
-30 26 -81 -4 -113 -30 -32 -90 -35 -120 -5 -23 23 -27 87 -7 112 34 43 94 46
131 6z m8096 -156 c35 -34 40 -44 40 -83 0 -78 -48 -128 -123 -129 -58 0 -97
26 -122 80 -16 36 -16 41 0 84 21 55 63 84 122 85 36 1 48 -5 83 -37z m-7820
1 c46 -32 59 -56 60 -107 0 -43 -4 -53 -39 -87 -33 -33 -45 -39 -82 -39 -27 0
-56 8 -73 19 -28 18 -66 80 -66 106 0 26 38 88 66 106 36 24 101 25 134 2z
m8243 -42 c40 -15 57 -40 57 -81 0 -69 -64 -107 -125 -74 -54 29 -61 90 -16
135 31 31 46 34 84 20z m-8726 -43 c64 -60 -8 -166 -93 -138 -63 21 -72 127
-14 158 32 16 78 8 107 -20z m8505 -173 c16 -35 -3 -75 -35 -75 -31 0 -47 18
-47 52 0 48 62 66 82 23z m-8307 -11 c30 -32 30 -35 5 -62 -26 -27 -44 -28
-70 -2 -25 25 -25 31 1 64 26 33 34 33 64 0z m8119 -82 c-14 -22 -34 -22 -48
1 -9 15 -7 21 9 33 17 12 21 12 34 -1 12 -12 13 -19 5 -33z m-7954 13 c18 -21
5 -47 -22 -43 -26 3 -37 36 -16 49 18 12 24 11 38 -6z"/>
<path d="M4171 5609 c-52 -17 -75 -31 -115 -73 -70 -72 -96 -141 -96 -250 0
-141 58 -243 175 -304 44 -24 61 -27 150 -27 88 0 105 3 140 24 61 37 114 91
143 146 24 45 27 61 27 155 0 83 -4 115 -20 150 -43 101 -116 161 -224 186
-74 18 -104 17 -180 -7z"/>
<path d="M5387 5640 c-59 -15 -111 -46 -147 -86 -40 -47 -83 -136 -78 -166 l3
-23 290 0 290 0 -3 35 c-8 98 -65 185 -144 223 -43 20 -159 30 -211 17z"/>
</g>
</svg>
