<?xml version="1.0" standalone="no"?>
<!DOCTYPE svg PUBLIC "-//W3C//DTD SVG 20010904//EN"
 "http://www.w3.org/TR/2001/REC-SVG-20010904/DTD/svg10.dtd">
<svg version="1.0" xmlns="http://www.w3.org/2000/svg"
 width="1897.000000pt" height="689.000000pt" viewBox="0 0 1897.000000 689.000000"
 preserveAspectRatio="xMidYMid meet">

<g transform="translate(0.000000,689.000000) scale(0.100000,-0.100000)"
fill="#000000" stroke="none">
<path d="M0 3445 l0 -3445 9485 0 9485 0 0 3445 0 3445 -9485 0 -9485 0 0
-3445z m16253 1832 c201 -118 174 -423 -46 -504 -18 -6 -61 -12 -97 -12 -154
-2 -270 119 -270 280 0 68 16 114 60 169 59 75 121 101 231 96 61 -2 85 -8
122 -29z m-13660 -30 c87 -51 137 -138 137 -236 0 -161 -116 -282 -270 -280
-118 1 -199 50 -249 149 -51 102 -40 213 29 300 59 75 121 101 231 96 61 -2
85 -8 122 -29z m4337 -616 c0 -339 4 -612 9 -615 5 -3 20 12 35 34 36 55 117
116 211 161 118 56 196 71 360 70 120 0 152 -4 225 -26 228 -67 400 -207 499
-404 48 -94 68 -159 86 -281 42 -274 -19 -520 -181 -731 -113 -148 -266 -236
-489 -281 -91 -19 -110 -19 -219 -8 -130 13 -221 40 -323 96 -69 38 -169 125
-178 155 -4 10 -13 19 -21 19 -11 0 -14 -22 -14 -115 l0 -116 -152 3 -153 3
-3 1310 c-1 721 0 1316 3 1323 3 9 44 12 155 12 l150 0 0 -609z m9935 460 c90
-42 130 -104 129 -206 0 -82 -20 -125 -83 -174 -143 -114 -360 -8 -361 175 0
160 171 271 315 205z m-14955 -43 c133 -81 148 -259 30 -361 -105 -90 -266
-61 -342 60 -29 49 -32 161 -4 212 40 75 118 120 206 121 45 0 66 -6 110 -32z
m10393 8 c82 -34 147 -155 132 -245 -9 -55 -56 -125 -106 -158 -58 -39 -158
-45 -223 -14 -82 40 -130 128 -124 227 5 76 38 132 105 175 40 25 57 29 115
29 38 0 83 -6 101 -14z m1005 -573 l2 -233 223 -2 222 -3 3 -132 3 -133 -223
-2 -223 -3 -3 -440 c-4 -482 1 -545 48 -619 41 -64 84 -81 200 -80 69 1 109 7
147 22 29 11 54 17 57 14 4 -3 6 -65 6 -137 0 -131 0 -132 -25 -143 -52 -24
-163 -43 -250 -44 -276 -3 -424 87 -475 288 -19 72 -20 112 -20 599 0 392 -3
524 -12 533 -8 8 -64 12 -185 12 l-174 0 3 133 3 132 180 5 180 5 3 233 2 233
153 -3 152 -3 3 -232z m3987 196 c101 -28 144 -132 92 -224 -74 -132 -287 -78
-287 72 0 86 55 146 150 162 3 1 23 -4 45 -10z m-15940 -30 c72 -20 115 -77
115 -152 0 -150 -213 -204 -287 -72 -59 104 1 213 127 234 3 1 23 -4 45 -10z
m14819 -50 c31 -25 32 -38 5 -73 -32 -41 -87 -30 -103 21 -5 17 -1 29 18 48
31 30 45 31 80 4z m-13698 -34 c19 -19 23 -31 18 -48 -16 -51 -71 -62 -103
-21 -27 35 -26 48 5 73 35 27 49 26 80 -4z m13999 -19 c63 -26 75 -97 26 -147
-59 -59 -150 -22 -151 61 0 40 22 77 54 90 29 12 32 12 71 -4z m-14277 -52
c25 -28 30 -88 9 -115 -36 -47 -97 -51 -138 -10 -48 49 -37 120 24 147 41 17
76 10 105 -22z m14728 -156 c47 -32 64 -68 64 -134 0 -46 -5 -64 -26 -91 -79
-103 -230 -77 -274 48 -20 56 -6 106 45 156 40 41 45 43 101 43 43 0 66 -6 90
-22z m-15091 -51 c51 -50 65 -100 45 -156 -33 -94 -137 -139 -220 -96 -53 27
-80 75 -80 139 0 102 53 156 154 156 56 0 61 -2 101 -43z m7900 -19 c287 -61
483 -256 569 -565 31 -112 48 -393 24 -393 -7 0 -303 0 -658 0 -355 0 -651 -4
-658 -9 -19 -11 1 -118 36 -191 32 -70 137 -174 217 -217 150 -79 347 -100
478 -50 82 32 143 73 222 149 32 32 64 58 70 58 5 0 51 -32 100 -70 143 -112
131 -95 94 -138 -241 -281 -688 -376 -1067 -226 -91 36 -154 80 -236 162 -120
120 -187 245 -229 422 -30 127 -29 336 2 450 83 312 305 533 611 609 122 30
308 34 425 9z m1937 6 c10 -6 10 -153 2 -256 l-7 -75 -126 5 c-108 4 -136 1
-197 -17 -143 -42 -221 -122 -280 -286 -17 -45 -19 -98 -22 -550 -1 -275 -7
-502 -11 -505 -5 -3 -75 -4 -155 -2 l-146 3 2 827 3 827 150 0 150 0 3 -122
c1 -68 6 -123 11 -123 5 0 14 13 21 29 17 42 91 115 161 161 115 74 227 103
364 93 38 -2 73 -7 77 -9z m-7457 -23 c39 -11 107 -39 153 -61 89 -44 215
-144 210 -166 -4 -18 -207 -204 -223 -204 -6 0 -22 12 -36 26 -36 40 -122 92
-197 121 -57 21 -85 25 -182 26 -97 0 -124 -3 -175 -23 -173 -66 -295 -222
-335 -428 -18 -90 -8 -270 19 -347 42 -117 154 -245 264 -301 71 -37 165 -57
262 -57 140 1 231 34 328 123 30 27 59 50 64 50 4 0 55 -47 112 -104 l103
-103 -17 -26 c-64 -98 -300 -206 -505 -232 -72 -9 -275 11 -370 37 -279 74
-485 280 -565 566 -72 258 -40 529 89 745 58 98 200 231 302 284 68 36 202 81
284 97 14 2 97 3 185 1 127 -2 174 -7 230 -24z m801 -9 c11 -7 21 -30 94 -222
16 -41 57 -147 91 -235 34 -88 74 -194 89 -235 64 -173 143 -381 176 -465 20
-49 40 -100 45 -112 10 -25 29 -31 29 -9 0 8 20 70 46 138 25 67 59 161 75
208 17 47 43 119 59 160 16 41 83 228 151 415 67 187 126 346 131 353 14 17
328 17 328 0 0 -7 -22 -68 -49 -137 -74 -189 -151 -385 -231 -591 -39 -102
-91 -234 -115 -295 -42 -106 -153 -392 -234 -600 -217 -556 -250 -627 -337
-725 -91 -101 -260 -157 -438 -145 -94 6 -204 28 -217 43 -4 4 -3 36 2 72 5
36 12 93 15 128 4 34 11 65 15 68 5 2 35 -2 68 -11 131 -34 264 -8 332 65 19
21 49 65 67 97 29 56 142 347 142 368 0 6 -21 60 -46 120 -25 61 -74 180 -109
265 -35 85 -98 238 -140 340 -98 236 -208 502 -250 605 -18 44 -56 136 -84
204 -28 69 -51 128 -51 133 0 10 331 10 346 0z m7342 -4 c9 -9 12 -204 12
-817 0 -444 -4 -812 -8 -819 -7 -9 -45 -12 -158 -10 l-149 3 -3 815 c-1 448 0
821 3 828 6 17 286 17 303 0z m1977 2 c6 -9 43 -104 137 -350 62 -162 82 -216
131 -345 25 -66 79 -210 122 -320 42 -110 82 -215 88 -234 7 -19 17 -36 22
-38 6 -2 25 38 42 89 17 51 74 210 126 353 52 143 138 382 191 530 53 149 102
281 109 295 13 25 13 25 175 28 117 2 162 -1 162 -9 0 -6 -30 -89 -66 -183
-37 -94 -87 -223 -111 -286 -24 -63 -64 -164 -88 -225 -106 -269 -158 -402
-225 -575 -211 -547 -339 -867 -373 -930 -93 -171 -172 -236 -346 -282 -63
-16 -94 -18 -183 -13 -102 6 -214 27 -231 44 -4 4 0 45 8 92 8 46 15 103 15
126 0 23 4 45 10 48 5 3 36 -1 69 -10 124 -32 260 -9 328 57 18 17 50 66 72
107 39 76 141 339 141 364 0 8 -18 58 -41 113 -91 221 -181 440 -262 634 -80
193 -252 611 -338 819 -22 52 -39 98 -39 103 0 12 347 10 355 -2z m3247 -38
c38 -34 42 -79 11 -120 -16 -21 -30 -28 -65 -30 -40 -3 -48 1 -72 28 -28 34
-32 59 -15 93 31 61 91 73 141 29z m-16486 -20 c50 -40 56 -86 18 -132 -24
-27 -32 -31 -72 -28 -35 2 -49 9 -65 30 -31 41 -27 86 11 120 37 32 77 36 108
10z m16196 -252 c89 -46 123 -101 122 -200 0 -74 -16 -109 -66 -156 -61 -57
-78 -64 -154 -64 -65 0 -74 3 -124 38 -156 109 -124 331 56 398 50 18 112 12
166 -16z m-15807 -35 c148 -86 156 -279 15 -377 -50 -35 -59 -38 -124 -38 -76
0 -93 7 -154 64 -50 46 -65 83 -66 156 -1 103 54 179 159 218 44 17 121 6 170
-23z m16187 -29 c16 -24 8 -66 -17 -82 -45 -29 -107 14 -89 64 17 49 79 60
106 18z m-16672 -39 c18 -31 8 -53 -32 -76 -23 -13 -29 -13 -52 2 -18 12 -26
26 -26 45 1 70 75 90 110 29z m16455 -521 c97 -46 159 -143 159 -248 -2 -203
-213 -335 -395 -246 -56 28 -100 73 -134 138 -24 45 -25 159 -3 211 61 141
237 210 373 145z m-16110 -30 c56 -26 119 -90 143 -145 22 -52 21 -166 -3
-211 -57 -109 -145 -165 -256 -164 -118 1 -213 68 -259 182 -34 85 -6 208 63
281 76 80 210 105 312 57z m15529 -202 c25 -24 20 -71 -9 -90 -29 -19 -60 -11
-81 21 -24 37 6 85 53 85 12 0 29 -7 37 -16z m-15108 -22 c6 -4 16 -17 23 -30
25 -48 -38 -98 -84 -68 -46 30 -25 106 28 106 12 0 27 -4 33 -8z m15033 -258
c51 -42 38 -119 -25 -149 -31 -15 -37 -15 -68 0 -43 21 -60 54 -53 102 12 73
87 97 146 47z m-14910 -21 c27 -23 38 -86 21 -118 -7 -13 -28 -31 -46 -40 -31
-15 -37 -15 -68 0 -63 30 -76 107 -25 149 36 31 87 34 118 9z m15401 -173
c163 -82 172 -298 18 -393 -112 -70 -271 -17 -323 105 -52 125 28 276 163 307
45 11 96 4 142 -19z m-15872 -10 c105 -25 182 -116 182 -218 0 -131 -94 -224
-226 -224 -54 0 -72 4 -112 29 -152 94 -145 308 13 391 24 12 67 26 95 31 3 0
24 -4 48 -9z m15150 -127 c72 -53 91 -132 50 -205 -71 -125 -266 -90 -285 51
-3 22 -3 51 1 65 8 31 62 95 90 107 33 14 115 4 144 -18z m-14387 -39 c47 -44
62 -80 57 -135 -11 -111 -125 -172 -226 -120 -93 47 -108 175 -30 248 56 53
148 56 199 7z m13937 -249 c147 -81 159 -279 23 -379 -50 -37 -55 -38 -131
-38 -76 0 -82 2 -130 37 -79 58 -110 139 -90 232 17 75 50 116 122 153 53 27
71 31 111 26 26 -3 69 -17 95 -31z m-13459 -26 c71 -35 104 -77 121 -152 20
-93 -11 -174 -90 -232 -48 -35 -54 -37 -130 -37 -76 0 -81 1 -131 38 -104 76
-126 210 -50 316 26 37 79 73 129 88 51 15 89 10 151 -21z m14269 -97 c44 -29
62 -66 62 -129 0 -74 -25 -117 -83 -143 -55 -25 -83 -25 -137 3 -51 25 -90 83
-90 133 0 70 57 145 120 157 37 7 101 -3 128 -21z m-15100 -39 c91 -69 77
-208 -28 -260 -54 -28 -82 -28 -137 -3 -59 26 -83 69 -83 148 0 59 2 64 39
101 57 57 144 63 209 14z m14671 -304 c42 -41 42 -89 2 -130 -40 -39 -82 -39
-122 0 -47 47 -35 116 26 149 34 19 62 13 94 -19z m-14336 -10 c63 -32 75
-102 28 -150 -40 -39 -82 -39 -122 0 -40 41 -40 89 2 130 32 33 57 38 92 20z
m14018 -110 c28 -28 22 -69 -13 -89 -25 -13 -31 -13 -55 0 -36 20 -42 61 -14
89 12 12 30 21 41 21 11 0 29 -9 41 -21z m-13710 -30 c28 -28 22 -69 -13 -89
-25 -13 -31 -13 -55 0 -36 20 -42 61 -14 89 12 12 30 21 41 21 11 0 29 -9 41
-21z"/>
<path d="M7360 3986 c-202 -39 -338 -171 -406 -393 -25 -81 -25 -264 0 -353
38 -138 97 -224 210 -307 113 -84 310 -120 456 -84 179 45 325 178 382 348 73
224 21 498 -123 642 -55 54 -159 115 -229 134 -79 22 -214 28 -290 13z"/>
<path d="M9450 4030 c-41 -4 -95 -18 -145 -40 -105 -44 -195 -131 -247 -240
-38 -80 -64 -178 -50 -192 4 -4 231 -7 503 -6 l494 3 -4 60 c-9 163 -90 295
-220 363 -92 48 -193 64 -331 52z"/>
</g>
</svg>
