<svg xmlns="http://www.w3.org/2000/svg" xmlns:xlink="http://www.w3.org/1999/xlink" width="1080" zoomAndPan="magnify" viewBox="0 0 810 809.999993" height="1080" preserveAspectRatio="xMidYMid meet" version="1.0"><defs><clipPath id="e112e8c369"><path d="M 20.015625 20.015625 L 773.503906 20.015625 L 773.503906 773.503906 L 20.015625 773.503906 Z M 20.015625 20.015625 " clip-rule="nonzero"/></clipPath><clipPath id="145ed9b03b"><path d="M 396.757812 20.015625 C 188.6875 20.015625 20.015625 188.6875 20.015625 396.757812 C 20.015625 604.828125 188.6875 773.503906 396.757812 773.503906 C 604.828125 773.503906 773.503906 604.828125 773.503906 396.757812 C 773.503906 188.6875 604.828125 20.015625 396.757812 20.015625 Z M 396.757812 20.015625 " clip-rule="nonzero"/></clipPath></defs><g clip-path="url(#e112e8c369)"><g clip-path="url(#145ed9b03b)"><path fill="#ffffff" d="M 20.015625 20.015625 L 773.503906 20.015625 L 773.503906 773.503906 L 20.015625 773.503906 Z M 20.015625 20.015625 " fill-opacity="1" fill-rule="nonzero"/></g></g><path fill="#000000" d="M 386.402344 0.457031 C 384.957031 0.605469 377.746094 1.289062 370.460938 1.898438 C 346.621094 4.023438 322.9375 8.121094 300.238281 14.121094 C 292.875 16.09375 264.9375 25.128906 262.738281 26.265625 C 261.675781 26.875 260.382812 27.328125 259.929688 27.328125 C 259.167969 27.328125 257.042969 28.164062 247.707031 32.339844 C 246.417969 32.945312 245.125 33.402344 244.820312 33.402344 C 242.621094 33.402344 204.359375 53.367188 192.898438 60.503906 C 191.378906 61.414062 189.175781 62.78125 187.886719 63.464844 C 186.671875 64.148438 185.457031 64.980469 185.230469 65.210938 C 185 65.511719 182.953125 66.878906 180.675781 68.324219 C 178.398438 69.765625 176.195312 71.207031 175.742188 71.511719 C 175.359375 71.8125 169.894531 75.914062 163.59375 80.621094 C 148.867188 91.628906 149.246094 91.324219 137.785156 101.496094 C 119.488281 117.816406 108.328125 129.28125 93.144531 147.5 C 91.78125 149.09375 90.335938 150.765625 89.882812 151.296875 C 88.820312 152.511719 72.726562 173.996094 71.585938 175.816406 C 71.054688 176.652344 69.535156 178.929688 68.171875 181.054688 C 66.804688 183.105469 65.511719 185 65.210938 185.230469 C 64.980469 185.457031 64.148438 186.597656 63.464844 187.886719 C 62.78125 189.101562 61.339844 191.53125 60.351562 193.199219 C 59.289062 194.871094 58.074219 197.070312 57.617188 198.136719 C 57.164062 199.121094 56.554688 200.183594 56.253906 200.414062 C 54.960938 201.324219 40.992188 228.273438 35.070312 241.40625 C 31.808594 248.769531 30.515625 251.730469 29.984375 253.550781 C 29.683594 254.613281 28.921875 256.132812 28.390625 256.96875 C 27.785156 257.804688 27.328125 258.941406 27.328125 259.625 C 27.253906 260.230469 26.644531 262.128906 25.8125 263.800781 C 24.976562 265.46875 24.367188 267.292969 24.292969 267.824219 C 24.292969 268.429688 23.835938 269.949219 23.230469 271.238281 C 22.621094 272.605469 21.027344 277.238281 19.738281 281.640625 C 18.445312 286.042969 17.082031 290.140625 16.777344 290.75 C 16.398438 291.433594 15.867188 293.101562 15.636719 294.546875 C 15.335938 295.988281 14.421875 299.402344 13.664062 302.136719 C 12.449219 306.617188 11.613281 310.257812 8.046875 326.808594 C 1.140625 358.921875 -1.519531 406.0625 1.746094 439.160156 C 4.628906 468.84375 9.488281 494.273438 16.851562 518.871094 C 19.511719 527.828125 25.050781 544.53125 26.265625 547.109375 C 26.875 548.402344 27.328125 549.84375 27.328125 550.375 C 27.328125 550.90625 27.859375 552.195312 28.46875 553.257812 C 29.074219 554.398438 30.59375 557.890625 31.882812 561.003906 C 37.273438 573.90625 54.582031 608.601562 56.253906 609.585938 C 56.554688 609.816406 57.238281 610.878906 57.695312 611.863281 C 59.136719 614.976562 60.882812 617.9375 66.425781 626.210938 C 69.386719 630.539062 72.117188 634.640625 72.496094 635.324219 C 74.546875 638.585938 89.273438 657.867188 90.109375 658.398438 C 90.640625 658.703125 91.097656 659.539062 91.097656 660.070312 C 91.097656 660.675781 91.398438 661.207031 91.78125 661.207031 C 92.160156 661.207031 93.449219 662.574219 94.664062 664.167969 C 102.027344 674.191406 135.734375 707.894531 145.679688 715.183594 C 147.347656 716.472656 148.789062 717.839844 148.789062 718.21875 C 148.789062 718.601562 149.324219 718.902344 149.929688 718.902344 C 150.460938 718.902344 151.296875 719.359375 151.601562 719.8125 C 151.902344 720.347656 153.574219 721.863281 155.242188 723.15625 C 160.027344 726.796875 173.386719 736.667969 174.675781 737.503906 C 175.359375 737.882812 179.460938 740.613281 183.789062 743.574219 C 188.113281 746.460938 192.515625 749.269531 193.582031 749.800781 C 194.644531 750.332031 196.390625 751.394531 197.527344 752.078125 C 203.980469 756.40625 228.957031 769.386719 241.40625 774.929688 C 248.921875 778.269531 250.441406 778.953125 258.867188 782.140625 C 353.300781 818.652344 456.699219 818.652344 551.132812 782.140625 C 559.558594 778.953125 561.078125 778.269531 568.59375 774.929688 C 581.042969 769.386719 606.019531 756.40625 612.472656 752.078125 C 613.609375 751.394531 615.355469 750.332031 616.417969 749.800781 C 617.484375 749.269531 621.886719 746.460938 626.210938 743.574219 C 630.539062 740.613281 634.640625 737.882812 635.324219 737.503906 C 636.613281 736.667969 649.972656 726.796875 654.757812 723.15625 C 656.425781 721.863281 658.097656 720.347656 658.398438 719.8125 C 658.703125 719.359375 659.539062 718.902344 660.070312 718.902344 C 660.675781 718.902344 661.210938 718.601562 661.210938 718.21875 C 661.210938 717.839844 662.574219 716.550781 664.167969 715.335938 C 674.191406 707.972656 707.972656 674.191406 715.335938 664.167969 C 716.550781 662.574219 717.839844 661.207031 718.21875 661.207031 C 718.601562 661.207031 718.902344 660.675781 718.902344 660.070312 C 718.902344 659.539062 719.359375 658.703125 719.890625 658.398438 C 720.726562 657.867188 735.453125 638.585938 737.503906 635.324219 C 737.957031 634.640625 740.613281 630.539062 743.574219 626.210938 C 749.117188 617.9375 750.863281 614.976562 752.304688 611.863281 C 752.761719 610.878906 753.445312 609.816406 753.746094 609.585938 C 755.417969 608.601562 772.726562 573.90625 778.117188 561.003906 C 779.40625 557.890625 780.925781 554.398438 781.53125 553.257812 C 782.140625 552.195312 782.671875 550.90625 782.671875 550.375 C 782.671875 549.84375 783.125 548.402344 783.734375 547.109375 C 785.707031 542.785156 792.996094 520.238281 796.183594 508.242188 C 799.144531 497.539062 803.167969 478.105469 805.066406 466.109375 C 809.394531 438.023438 811.140625 399.761719 808.9375 378.277344 C 808.253906 371.671875 807.496094 364.234375 807.265625 361.730469 C 806.28125 349.886719 803.546875 334.019531 799.296875 314.28125 C 796.640625 302.210938 789.351562 277.007812 786.769531 271.238281 C 786.164062 269.949219 785.707031 268.429688 785.707031 267.824219 C 785.632812 267.292969 785.023438 265.46875 784.1875 263.800781 C 783.355469 262.128906 782.746094 260.230469 782.671875 259.625 C 782.671875 258.941406 782.214844 257.804688 781.609375 256.96875 C 781.078125 256.132812 780.316406 254.613281 780.015625 253.550781 C 779.484375 251.730469 778.191406 248.769531 774.929688 241.40625 C 769.007812 228.273438 755.039062 201.324219 753.746094 200.414062 C 753.445312 200.183594 752.835938 199.121094 752.382812 198.136719 C 751.925781 197.070312 750.710938 194.871094 749.648438 193.199219 C 748.660156 191.53125 747.21875 189.101562 746.535156 187.886719 C 745.851562 186.597656 745.019531 185.457031 744.789062 185.230469 C 744.488281 185 743.195312 183.105469 741.828125 181.054688 C 740.464844 178.929688 738.945312 176.652344 738.414062 175.816406 C 737.273438 173.996094 721.179688 152.511719 720.117188 151.296875 C 719.664062 150.765625 718.21875 149.09375 716.929688 147.5 C 700.609375 127.914062 683.832031 111.0625 662.347656 92.917969 C 658.398438 89.578125 659.539062 90.414062 646.40625 80.621094 C 640.179688 75.914062 634.714844 71.8125 634.257812 71.511719 C 633.878906 71.207031 631.601562 69.765625 629.324219 68.324219 C 627.046875 66.878906 625 65.511719 624.769531 65.210938 C 624.542969 64.980469 623.402344 64.148438 622.113281 63.464844 C 620.898438 62.78125 618.621094 61.414062 617.101562 60.503906 C 604.957031 52.910156 580.511719 40.082031 568.59375 34.996094 C 561.003906 31.730469 560.546875 31.582031 555.386719 29.300781 C 552.957031 28.238281 550.601562 27.328125 550.070312 27.328125 C 549.617188 27.328125 548.324219 26.875 547.261719 26.265625 C 545.0625 25.128906 517.125 16.09375 509.761719 14.121094 C 476.585938 5.3125 443.640625 0.835938 408.796875 0.378906 C 397.941406 0.226562 387.84375 0.304688 386.402344 0.457031 Z M 710.554688 326.808594 C 721.257812 332.351562 716.929688 349.203125 704.859375 349.203125 C 692.941406 349.203125 688.460938 333.335938 698.558594 327.1875 C 701.59375 325.367188 707.363281 325.136719 710.554688 326.808594 Z M 110.152344 328.933594 C 115.238281 332.351562 116.679688 338.421875 113.792969 344.496094 C 110.984375 350.191406 104.457031 352.164062 98.234375 349.128906 C 89.957031 345.179688 89.425781 332.351562 97.398438 328.402344 C 101.042969 326.582031 107.039062 326.808594 110.152344 328.933594 Z M 300.464844 355.960938 L 300.617188 382.757812 L 303.882812 379.492188 C 311.324219 371.976562 324.683594 368.714844 335.917969 371.671875 C 348.976562 375.015625 358.007812 383.515625 361.804688 396.042969 C 363.703125 402.34375 363.703125 414.945312 361.804688 420.941406 C 358.390625 431.492188 351.101562 439.921875 341.839844 443.792969 C 337.058594 445.839844 335.917969 445.992188 327.1875 445.992188 C 318.078125 445.992188 317.472656 445.917969 312.613281 443.5625 C 309.878906 442.273438 306.234375 439.84375 304.488281 438.097656 C 302.746094 436.351562 301.226562 434.984375 301 434.984375 C 300.847656 434.984375 300.617188 437.113281 300.464844 439.691406 L 300.238281 444.476562 L 294.015625 444.703125 L 287.714844 444.929688 L 287.714844 428.382812 C 287.714844 419.273438 287.484375 398.320312 287.257812 381.769531 C 287.03125 365.222656 287.03125 346.546875 287.332031 340.167969 L 287.941406 328.628906 L 294.089844 328.859375 L 300.238281 329.085938 Z M 737.425781 335.082031 C 741.375 336.753906 743.195312 339.636719 743.195312 344.269531 C 743.195312 347.914062 742.96875 348.519531 740.613281 350.570312 C 737.273438 353.453125 734.238281 354.136719 730.972656 352.769531 C 725.507812 350.417969 723.457031 346.46875 724.902344 341.082031 C 725.507812 338.953125 726.496094 337.664062 728.925781 336.070312 C 732.566406 333.71875 733.859375 333.566406 737.425781 335.082031 Z M 79.9375 337.4375 C 81.988281 338.878906 84.265625 342.828125 84.265625 344.953125 C 84.265625 350.113281 79.710938 354.515625 74.394531 354.515625 C 70.296875 354.515625 67.5625 352.847656 65.742188 349.050781 C 63.007812 343.660156 65.664062 338.273438 72.117188 335.996094 C 73.789062 335.464844 78.265625 336.222656 79.9375 337.4375 Z M 537.699219 337.132812 C 539.976562 338.195312 542.785156 342.976562 542.785156 345.9375 C 542.785156 348.671875 539.441406 353.605469 537.015625 354.59375 C 535.953125 354.972656 533.675781 355.277344 532.003906 355.277344 C 529.347656 355.277344 528.4375 354.820312 525.929688 352.238281 C 523.652344 349.734375 523.046875 348.597656 523.046875 346.242188 C 523.046875 342.828125 524.5625 339.5625 526.992188 337.664062 C 528.96875 336.144531 534.886719 335.84375 537.699219 337.132812 Z M 581.042969 361.5 C 581.347656 367.042969 581.652344 371.597656 581.726562 371.75 C 581.878906 371.824219 586.054688 372.128906 591.140625 372.433594 L 600.324219 372.964844 L 600.628906 377.976562 C 600.859375 380.707031 600.933594 383.136719 600.78125 383.289062 C 600.707031 383.363281 596.304688 383.667969 591.066406 383.894531 L 581.5 384.351562 L 581.5 404.542969 C 581.5 415.628906 581.878906 426.105469 582.257812 427.773438 C 583.320312 432.40625 585.902344 434.226562 591.597656 434.226562 C 594.175781 434.226562 597.441406 433.921875 598.808594 433.542969 L 601.238281 432.785156 L 601.238281 438.859375 C 601.238281 444.703125 601.238281 444.855469 599.1875 445.386719 C 597.972656 445.765625 593.113281 445.992188 588.332031 445.992188 C 580.742188 445.917969 579.222656 445.691406 576.488281 444.246094 C 572.238281 441.96875 571.097656 440.527344 569.351562 435.515625 C 567.988281 431.570312 567.835938 429.214844 567.835938 408.113281 C 567.835938 392.929688 567.53125 384.808594 567.074219 384.503906 C 566.621094 384.199219 563.050781 383.820312 559.105469 383.59375 L 551.894531 383.136719 L 551.894531 372.886719 L 557.816406 372.355469 C 561.003906 372.128906 564.496094 371.824219 565.558594 371.75 L 567.457031 371.597656 L 567.683594 361.5 L 567.910156 351.480469 L 580.511719 351.480469 Z M 758.835938 354.59375 C 761.035156 355.960938 761.414062 356.566406 761.414062 359.148438 C 761.414062 364.839844 755.265625 367.878906 750.789062 364.386719 C 749.269531 363.246094 748.890625 362.261719 748.890625 359.453125 C 748.890625 356.644531 749.269531 355.65625 750.789062 354.515625 C 753.214844 352.621094 755.722656 352.621094 758.835938 354.59375 Z M 58.605469 356.945312 C 60.503906 359.375 60.351562 363.019531 58.300781 364.917969 C 54.507812 368.332031 50.253906 367.953125 47.824219 363.855469 C 45.777344 360.4375 45.851562 359.679688 48.585938 356.792969 C 50.632812 354.59375 51.242188 354.367188 54.050781 354.746094 C 56.101562 355.046875 57.695312 355.808594 58.605469 356.945312 Z M 707.515625 357.175781 C 708.277344 358.085938 708.277344 358.539062 707.515625 359.453125 C 705.617188 361.730469 702.886719 359.984375 704.023438 357.175781 C 704.253906 356.566406 704.933594 356.035156 705.464844 356.035156 C 706.074219 356.035156 706.984375 356.566406 707.515625 357.175781 Z M 104.835938 358.769531 C 105.671875 359.832031 105.597656 360.136719 104.457031 361.046875 C 102.179688 362.714844 98.765625 359.984375 100.738281 358.085938 C 101.648438 357.175781 103.773438 357.554688 104.835938 358.769531 Z M 722.09375 360.136719 C 722.394531 360.589844 722.699219 361.652344 722.699219 362.488281 C 722.699219 365.449219 719.890625 367.269531 717.308594 365.90625 C 715.410156 364.839844 715.335938 360.210938 717.234375 359.148438 C 718.675781 358.3125 721.257812 358.84375 722.09375 360.136719 Z M 92.007812 361.882812 C 93.675781 363.398438 93.753906 364.234375 92.082031 366.054688 C 89.957031 368.410156 86.464844 367.726562 85.480469 364.691406 C 84.417969 361.273438 89.121094 359.300781 92.007812 361.882812 Z M 741.449219 369.09375 C 743.878906 371.371094 743.878906 375.925781 741.296875 378.429688 C 737.273438 382.453125 730.289062 379.570312 730.289062 373.875 C 730.289062 368.332031 737.351562 365.222656 741.449219 369.09375 Z M 76.445312 371.066406 C 78.949219 374.027344 78.722656 377.441406 75.835938 379.871094 C 71.738281 383.363281 66.578125 381.847656 65.589844 376.910156 C 64.90625 373.117188 66.425781 369.851562 69.386719 369.015625 C 72.496094 368.105469 74.394531 368.636719 76.445312 371.066406 Z M 424.585938 371.597656 C 440.753906 375.847656 450.167969 389.363281 450.167969 408.566406 L 450.167969 412.972656 L 421.167969 413.121094 L 392.09375 413.351562 L 391.867188 415.78125 C 391.335938 421.167969 397.484375 429.066406 405 432.785156 C 408.265625 434.300781 409.859375 434.605469 416.386719 434.605469 C 424.964844 434.605469 426.105469 434.152344 433.089844 428.535156 L 437.261719 425.042969 L 440.527344 427.320312 C 445.460938 430.886719 446.371094 431.644531 446.371094 432.558594 C 446.371094 434.074219 438.933594 439.996094 434.074219 442.425781 C 427.242188 445.765625 422.460938 446.601562 412.667969 446.222656 C 401.433594 445.691406 395.738281 443.488281 389.058594 436.960938 C 383.515625 431.570312 380.328125 425.574219 378.507812 417.601562 C 376.988281 410.617188 376.988281 406.140625 378.507812 399.609375 C 382 384.503906 393.308594 373.722656 408.417969 370.992188 C 412.667969 370.230469 420.488281 370.535156 424.585938 371.597656 Z M 508.167969 370.914062 C 509.152344 371.292969 509.382812 372.660156 509.382812 378.050781 L 509.382812 384.730469 L 502.019531 385.035156 C 491.542969 385.488281 487.519531 387.765625 483.496094 395.511719 C 481.824219 398.773438 481.75 399.761719 481.292969 421.699219 L 480.914062 444.476562 L 468.007812 444.476562 L 468.007812 372.738281 L 481.292969 372.738281 L 481.292969 377.671875 C 481.292969 380.402344 481.445312 382.605469 481.671875 382.605469 C 481.902344 382.605469 483.265625 381.238281 484.859375 379.570312 C 488.503906 375.46875 491.164062 373.648438 495.945312 371.976562 C 499.816406 370.535156 505.890625 370.003906 508.167969 370.914062 Z M 182.421875 372.660156 C 186.898438 374.179688 193.960938 378.429688 195.78125 380.632812 C 196.769531 381.769531 196.539062 382.300781 193.65625 385.1875 C 188.417969 390.5 187.355469 390.804688 183.9375 388.070312 C 180.675781 385.488281 172.855469 382.605469 169.136719 382.605469 C 159.796875 382.605469 151.371094 388.679688 147.804688 398.167969 C 145.070312 405.378906 144.917969 413.425781 147.578125 419.195312 C 151.523438 428 158.507812 433.238281 167.085938 434 C 174.753906 434.683594 178.246094 433.847656 182.800781 430.429688 C 185 428.761719 187.128906 427.394531 187.582031 427.394531 C 188.644531 427.394531 196.617188 434.984375 196.617188 436.046875 C 196.617188 438.023438 189.40625 442.425781 182.421875 444.777344 C 173.464844 447.816406 159.34375 446.675781 150.917969 442.425781 C 140.894531 437.261719 134.824219 428.535156 132.46875 415.78125 C 131.101562 408.644531 131.101562 408.113281 132.394531 401.433594 C 133.988281 393.003906 136.796875 387.160156 141.65625 382.300781 C 149.929688 374.027344 156.6875 371.292969 169.363281 371.292969 C 176.121094 371.21875 179.15625 371.523438 182.421875 372.660156 Z M 213.164062 372.433594 C 215.292969 372.738281 217.113281 373.269531 217.113281 373.648438 C 217.113281 374.253906 223.1875 390.273438 225.539062 395.890625 C 226.148438 397.410156 228.425781 403.480469 232.070312 413.351562 C 233.132812 416.234375 234.648438 420.105469 235.410156 421.851562 C 236.242188 423.675781 236.851562 425.574219 236.851562 426.105469 C 236.851562 427.167969 238.292969 428.914062 239.28125 428.914062 C 239.582031 428.914062 239.886719 428.304688 239.886719 427.621094 C 239.886719 426.863281 240.570312 424.511719 241.40625 422.308594 C 242.316406 420.105469 243.683594 416.3125 244.59375 413.957031 C 245.429688 411.527344 246.644531 408.492188 247.097656 407.277344 C 247.628906 405.988281 249.148438 401.886719 250.441406 398.167969 C 253.171875 390.273438 255.675781 383.289062 258.03125 377.140625 L 259.699219 372.8125 L 263.800781 372.355469 C 269.191406 371.671875 273.289062 372.433594 273.289062 374.027344 C 273.289062 374.710938 272.683594 376.683594 271.921875 378.355469 C 271.089844 380.101562 268.429688 386.78125 265.925781 393.234375 C 263.421875 399.6875 258.941406 411.300781 255.90625 419.042969 C 252.945312 426.789062 250.136719 433.695312 249.757812 434.378906 C 249.300781 435.136719 248.996094 436.125 248.996094 436.65625 C 248.996094 437.113281 248.390625 438.933594 247.554688 440.605469 C 246.796875 442.347656 244.441406 448.195312 242.316406 453.585938 C 240.191406 459.050781 237.914062 464.515625 237.304688 465.730469 C 236.625 467.023438 236.09375 468.234375 236.09375 468.539062 C 236.09375 469.601562 231.386719 475.980469 229.5625 477.421875 C 224.324219 481.519531 212.40625 483.34375 205.726562 481.066406 L 203.070312 480.15625 L 203.371094 475.21875 C 203.523438 472.488281 203.753906 470.058594 203.980469 469.753906 C 204.132812 469.449219 206.789062 469.375 209.75 469.601562 C 214.378906 470.058594 215.746094 469.832031 218.253906 468.539062 C 222.957031 466.1875 224.023438 464.515625 228.578125 453.355469 C 231.003906 447.132812 231.308594 444.703125 229.714844 441.667969 C 229.109375 440.605469 228.273438 438.402344 227.742188 436.730469 C 227.210938 435.136719 226.148438 432.632812 225.386719 431.191406 C 224.703125 429.746094 222.503906 424.433594 220.53125 419.421875 C 218.554688 414.488281 216.65625 409.859375 216.355469 409.175781 C 215.59375 407.808594 212.632812 400.519531 210.207031 394.371094 C 209.21875 391.867188 208.003906 389.132812 207.472656 388.300781 C 206.941406 387.464844 206.484375 386.324219 206.484375 385.640625 C 206.484375 385.035156 205.953125 383.441406 205.269531 382.226562 C 204.585938 380.933594 203.449219 378.355469 202.691406 376.378906 L 201.324219 372.8125 L 203.371094 372.507812 C 206.789062 371.976562 208.992188 371.976562 213.164062 372.433594 Z M 537.394531 372.433594 L 539.746094 372.886719 L 539.746094 444.929688 L 533.140625 444.703125 L 526.460938 444.476562 L 526.234375 408.644531 L 526.082031 372.8125 L 527.753906 372.507812 C 530.5625 371.976562 534.8125 371.976562 537.394531 372.433594 Z M 623.554688 372.433594 C 625.453125 372.738281 627.046875 373.269531 627.046875 373.648438 C 627.046875 374.179688 631.222656 385.414062 633.046875 389.816406 C 633.425781 390.652344 634.640625 393.917969 635.777344 397.027344 C 636.917969 400.140625 639.726562 407.351562 641.925781 412.972656 C 644.128906 418.589844 646.179688 424.128906 646.40625 425.269531 C 646.710938 426.40625 647.394531 427.699219 648 428.230469 C 649.140625 429.140625 649.214844 428.988281 652.175781 420.5625 C 652.933594 418.285156 654.453125 413.957031 655.515625 411.074219 C 656.652344 408.113281 657.945312 404.394531 658.550781 402.722656 C 659.082031 401.050781 660.449219 397.257812 661.589844 394.371094 C 662.652344 391.410156 664.09375 387.3125 664.699219 385.261719 C 665.382812 383.136719 666.144531 381.085938 666.371094 380.707031 C 666.675781 380.253906 667.433594 378.429688 668.042969 376.53125 L 669.179688 373.117188 L 674.492188 372.738281 C 682.160156 372.128906 683.453125 372.433594 682.84375 374.863281 C 682.539062 376 681.707031 378.277344 680.871094 380.101562 C 680.113281 381.847656 679.429688 383.515625 679.429688 383.820312 C 679.429688 384.503906 670.621094 407.050781 668.722656 411.148438 C 667.890625 412.894531 667.28125 414.792969 667.28125 415.398438 C 667.28125 416.007812 666.976562 416.765625 666.675781 417.144531 C 666.296875 417.601562 665.613281 418.890625 665.15625 420.183594 C 663.257812 425.648438 657.792969 439.390625 656.503906 442.273438 C 655.742188 443.945312 655.136719 445.613281 655.136719 445.992188 C 655.136719 446.296875 653.617188 450.394531 651.71875 455.101562 C 644.050781 474.234375 642.078125 477.042969 633.195312 480.457031 C 628.792969 482.203125 622.492188 482.507812 616.417969 481.21875 L 612.625 480.382812 L 613.15625 474.992188 C 613.382812 471.957031 613.992188 469.300781 614.371094 468.996094 C 614.824219 468.765625 615.964844 468.84375 616.953125 469.222656 C 621.429688 470.894531 628.035156 469.601562 631.753906 466.339844 C 633.046875 465.199219 637.070312 457.378906 638.054688 453.964844 C 638.359375 452.902344 638.964844 451.609375 639.421875 451.003906 C 640.863281 449.332031 640.332031 442.5 638.511719 439.160156 C 637.675781 437.566406 636.917969 435.667969 636.917969 434.984375 C 636.917969 434.300781 636.613281 433.46875 636.234375 433.011719 C 635.855469 432.632812 634.335938 429.214844 632.816406 425.34375 C 631.375 421.550781 629.554688 417.144531 628.871094 415.476562 C 628.109375 413.882812 626.972656 411.226562 626.289062 409.554688 C 625.53125 407.882812 624.390625 405.304688 623.707031 403.710938 C 623.023438 402.191406 622.492188 400.75 622.492188 400.445312 C 622.492188 399.835938 619.078125 391.5625 617.9375 389.363281 C 617.558594 388.679688 616.191406 385.261719 614.824219 381.769531 C 613.460938 378.277344 612.09375 375.089844 611.714844 374.632812 C 610.726562 373.570312 610.953125 372.886719 612.472656 372.507812 C 614.523438 371.976562 619.683594 371.902344 623.554688 372.433594 Z M 769.613281 374.40625 C 771.96875 376.761719 769.839844 380.328125 766.121094 380.328125 C 764.300781 380.328125 762.933594 377.441406 763.769531 375.164062 C 764.453125 373.269531 768.019531 372.8125 769.613281 374.40625 Z M 43.652344 375.46875 C 45.851562 376.910156 46.078125 378.507812 44.257812 380.480469 C 42.664062 382.300781 40.160156 382.226562 38.488281 380.328125 C 36.816406 378.355469 36.894531 378.125 38.867188 376 C 40.839844 373.953125 41.222656 373.875 43.652344 375.46875 Z M 754.582031 385.640625 C 756.023438 386.023438 758.152344 387.234375 759.367188 388.300781 C 761.113281 389.96875 761.414062 390.804688 761.414062 394.601562 C 761.414062 399.382812 761.261719 399.761719 758.074219 402.191406 C 756.480469 403.40625 754.886719 403.859375 752.152344 403.859375 C 748.8125 403.859375 748.054688 403.558594 745.699219 401.203125 C 743.121094 398.625 743.042969 398.320312 743.347656 393.992188 C 743.726562 389.132812 744.410156 388.148438 748.890625 386.023438 C 751.699219 384.730469 751.320312 384.730469 754.582031 385.640625 Z M 60.425781 387.691406 C 63.007812 388.980469 66.046875 393.460938 66.046875 396.042969 C 66.046875 397.863281 63.691406 401.886719 61.566406 403.632812 C 59.0625 405.757812 52.761719 405.988281 50.484375 404.011719 C 46.230469 400.371094 45.246094 395.8125 47.75 391.640625 C 50.785156 386.703125 55.265625 385.261719 60.425781 387.691406 Z M 773.183594 390.195312 C 773.183594 392.324219 771.132812 393.15625 769.308594 391.640625 C 768.324219 390.878906 768.398438 390.578125 769.539062 389.285156 C 771.285156 387.386719 773.183594 387.84375 773.183594 390.195312 Z M 39.09375 391.714844 C 39.09375 393.992188 36.515625 394.75 34.996094 392.929688 C 34.238281 392.019531 34.238281 391.5625 35.070312 390.652344 C 36.667969 388.832031 39.09375 389.4375 39.09375 391.714844 Z M 764.679688 414.335938 C 769.234375 417.375 770.144531 419.042969 770.144531 424.359375 C 770.144531 428.683594 769.917969 429.597656 767.945312 431.722656 C 763.691406 436.429688 758.910156 437.566406 753.898438 435.0625 C 749.34375 432.707031 746.992188 428.988281 746.992188 424.207031 C 747.066406 419.804688 748.585938 417.144531 752.761719 414.414062 C 755.644531 412.515625 761.792969 412.515625 764.679688 414.335938 Z M 53.746094 414.945312 C 61.71875 418.058594 63.84375 427.699219 57.921875 433.695312 C 55.039062 436.730469 51.847656 437.71875 46.914062 437.035156 C 43.347656 436.582031 40.691406 434.300781 38.640625 430.128906 C 36.816406 426.40625 36.816406 426.027344 38.714844 421.625 C 40.386719 417.828125 42.054688 416.234375 45.929688 414.71875 C 49.039062 413.503906 50.332031 413.578125 53.746094 414.945312 Z M 738.1875 426.710938 C 737.199219 427.773438 736.589844 427.925781 735.527344 427.320312 C 733.707031 426.40625 733.707031 424.660156 735.375 423.675781 C 736.363281 423.144531 737.121094 423.296875 738.109375 424.128906 C 739.324219 425.269531 739.324219 425.496094 738.1875 426.710938 Z M 73.257812 426.636719 C 73.257812 428.835938 70.828125 429.746094 70.144531 427.851562 C 69.460938 426.027344 70.449219 424.207031 71.890625 424.511719 C 72.800781 424.660156 73.257812 425.421875 73.257812 426.636719 Z M 734.84375 436.503906 C 736.667969 438.324219 736.742188 439.390625 735.074219 441.210938 C 733.707031 442.804688 731.050781 443.03125 729.683594 441.667969 C 728.316406 440.300781 728.542969 437.1875 730.140625 436.046875 C 731.960938 434.605469 733.097656 434.757812 734.84375 436.503906 Z M 79.328125 439.085938 C 79.9375 440.90625 79.785156 441.4375 78.265625 442.652344 C 76.066406 444.476562 75.535156 444.476562 73.558594 442.5 C 70.980469 439.921875 72.878906 436.277344 76.671875 436.65625 C 77.964844 436.808594 78.796875 437.566406 79.328125 439.085938 Z M 756.859375 444.855469 C 759.898438 446.449219 761.566406 449.332031 761.644531 452.976562 C 761.71875 457.378906 760.582031 459.65625 757.390625 461.554688 C 754.429688 463.378906 751.089844 463.453125 747.902344 461.859375 C 744.335938 460.113281 743.195312 457.988281 743.195312 453.28125 C 743.195312 449.636719 743.421875 448.953125 745.851562 446.675781 C 749.269531 443.488281 752.914062 442.882812 756.859375 444.855469 Z M 61.261719 446.828125 C 62.25 447.4375 63.691406 449.332031 64.601562 451.078125 C 66.046875 453.886719 66.121094 454.496094 65.210938 457.152344 C 62.554688 465.277344 52.078125 466.71875 47.824219 459.507812 C 42.738281 450.851562 52.761719 441.4375 61.261719 446.828125 Z M 725.355469 451.460938 C 731.429688 455.9375 725.050781 465.503906 718.296875 462.011719 C 715.714844 460.71875 715.109375 459.507812 715.109375 455.785156 C 715.109375 452.21875 718.296875 449.105469 721.410156 449.714844 C 722.546875 449.941406 724.371094 450.777344 725.355469 451.460938 Z M 92.160156 453.355469 C 94.285156 455.632812 94.132812 459.507812 91.855469 461.933594 C 89.578125 464.363281 85.023438 464.59375 82.746094 462.316406 C 81 460.570312 80.695312 455.710938 82.214844 453.8125 C 84.796875 450.546875 89.351562 450.320312 92.160156 453.355469 Z M 706.757812 465.199219 C 709.414062 467.78125 709.792969 468.539062 709.792969 471.5 C 709.792969 477.421875 706.148438 481.21875 700.457031 481.292969 C 696.054688 481.292969 693.09375 479.320312 691.195312 475.21875 C 689.980469 472.488281 689.980469 472.109375 691.195312 468.84375 C 692.789062 464.667969 695.976562 462.464844 700.457031 462.390625 C 703.1875 462.316406 704.101562 462.769531 706.757812 465.199219 Z M 113.113281 465.125 C 116.605469 467.554688 117.589844 469.375 117.667969 473.246094 C 117.667969 476.511719 117.363281 477.269531 114.707031 479.851562 C 112.199219 482.355469 111.289062 482.8125 108.480469 482.8125 C 106.429688 482.8125 104.230469 482.203125 102.9375 481.371094 C 100.8125 480.003906 97.929688 475.296875 97.929688 473.324219 C 97.929688 471.347656 100.8125 466.640625 102.9375 465.277344 C 105.671875 463.453125 110.605469 463.378906 113.113281 465.125 Z M 738.867188 468.3125 C 741.90625 469.449219 743.195312 471.347656 743.195312 474.460938 C 743.195312 479.699219 738.335938 482.582031 733.707031 480.078125 C 729.605469 477.878906 729.074219 473.246094 732.492188 469.832031 C 734.84375 467.476562 735.984375 467.25 738.867188 468.3125 Z M 76.445312 471.578125 C 81.304688 476.132812 75.835938 484.179688 69.386719 482.050781 C 64.601562 480.457031 63.917969 472.410156 68.324219 470.058594 C 70.75 468.84375 74.242188 469.449219 76.445312 471.578125 Z M 722.09375 484.710938 C 723.304688 487.367188 721.863281 490.402344 719.433594 490.402344 C 717.082031 490.402344 715.867188 489.035156 715.867188 486.457031 C 715.867188 482.8125 720.574219 481.445312 722.09375 484.710938 Z M 91.476562 485.542969 C 93.753906 487.972656 93.753906 488.203125 91.855469 490.25 C 89.882812 492.300781 88.515625 492.375 86.542969 490.402344 C 84.644531 488.503906 84.644531 488.050781 86.617188 485.542969 C 88.589844 483.039062 89.199219 483.039062 91.476562 485.542969 Z M 707.820312 491.769531 C 706.757812 493.441406 705.238281 493.441406 704.175781 491.695312 C 703.492188 490.554688 703.644531 490.097656 704.859375 489.1875 C 706.148438 488.277344 706.453125 488.277344 707.441406 489.265625 C 708.351562 490.175781 708.425781 490.707031 707.820312 491.769531 Z M 104 490.78125 C 105.367188 492.375 104.382812 494.351562 102.332031 494.046875 C 100.359375 493.820312 99.523438 491.3125 101.117188 490.328125 C 102.484375 489.417969 102.9375 489.492188 104 490.78125 Z M 104 490.78125 " fill-opacity="1" fill-rule="nonzero"/><path fill="#000000" d="M 316.636719 384.199219 C 312.6875 385.488281 310.941406 386.554688 307.90625 389.742188 C 302.59375 395.207031 300.617188 400.445312 300.617188 408.71875 C 300.617188 419.421875 305.023438 427.167969 313.902344 431.796875 C 317.242188 433.621094 318.535156 433.847656 325.289062 433.847656 C 331.972656 433.847656 333.261719 433.621094 335.917969 432.023438 C 340.550781 429.214844 344.574219 425.117188 346.773438 420.941406 C 348.597656 417.527344 348.824219 416.3125 348.824219 409.175781 C 348.824219 402.875 348.519531 400.445312 347.304688 397.789062 C 344.042969 390.121094 338.5 385.566406 330.300781 383.667969 C 324.683594 382.300781 322.40625 382.378906 316.636719 384.199219 Z M 316.636719 384.199219 " fill-opacity="1" fill-rule="nonzero"/><path fill="#000000" d="M 408.949219 381.847656 C 404.46875 382.984375 400.519531 385.339844 397.789062 388.375 C 394.75 391.941406 391.488281 398.699219 391.867188 400.976562 L 392.09375 402.722656 L 436.125 402.722656 L 435.898438 400.066406 C 435.289062 392.625 430.960938 386.023438 424.964844 383.136719 C 421.699219 381.617188 412.894531 380.859375 408.949219 381.847656 Z M 408.949219 381.847656 " fill-opacity="1" fill-rule="nonzero"/></svg>